<?xml version="1.0" encoding="UTF-8"?>
<svg fill="none" version="1.1" viewBox="0 0 350 170" xmlns="http://www.w3.org/2000/svg" xmlns:cc="http://creativecommons.org/ns#" xmlns:dc="http://purl.org/dc/elements/1.1/" xmlns:rdf="http://www.w3.org/1999/02/22-rdf-syntax-ns#">
<metadata>
<rdf:RDF>
<cc:Work rdf:about="">
<dc:format>image/svg+xml</dc:format>
<dc:type rdf:resource="http://purl.org/dc/dcmitype/StillImage"/>
<dc:title/>
</cc:Work>
</rdf:RDF>
</metadata>
<style>.header {
            font: 600 18px 'Segoe UI', Ubuntu, Sans-Serif;
            fill: #04a37c;
            animation: fadeInAnimation 0.8s ease-in-out forwards;
          }
          
    .lang-name { font: 400 11px 'Segoe UI', Ubuntu, Sans-Serif; fill: #000 }</style>
<rect x=".5" y=".5" width="349" height="99%" rx="4.5" fill="#fff" stroke="#e4e2e2" data-testid="card-bg"/>
<g transform="translate(25 35)" data-testid="card-title">
<g transform="translate(0)">
<text class="header" data-testid="header">Languages</text>
</g>
</g>
<g transform="translate(0 55)">
<svg x="25" data-testid="lang-items" version="1.1"/>
</g>
<path d="m35.414 65.25c0 1.4067 0.25304 2.7542 0.71529 4l10.785 1 10.785-1c0.46224-1.2458 0.71529-2.5933 0.71529-4 0-1.4067-0.25304-2.7542-0.71529-4l-10.785-1-10.785 1c-0.46224 1.2458-0.71529 2.5933-0.71529 4z" fill="#ffda44" stroke-width=".044922"/>
<g transform="matrix(.044922 0 0 .044922 35.414 53.75)" fill="#d80027">
<path d="m496.08 166.96c-36.171-97.484-130.01-166.96-240.08-166.96s-203.91 69.473-240.08 166.96z"/>
<path d="m15.923 345.04c36.171 97.484 130.01 166.96 240.08 166.96s203.91-69.473 240.08-166.96z"/>
</g>
<circle cx="47.63" cy="141.42" r="11.5" fill="#f0f0f0" stroke-width=".044922"/>
<path d="m59.13 144.5c0-4.9446-3.1208-9.1598-7.5-10.785v21.569c4.3792-1.6249 7.5-5.8402 7.5-10.785z" fill="#d80027" stroke-width=".044922"/>
<path d="m36.13 144.5c0 4.9446 3.1209 9.1598 7.5 10.785v-21.569c-4.3792 1.6249-7.5 5.8401-7.5 10.785z" fill="#0052b4" stroke-width=".044922"/>
<circle cx="47.541" cy="104.33" r="11.5" fill="#f0f0f0" stroke-width=".044922"/>
<g transform="matrix(.044922 0 0 .044922 36.041 92.828)" fill="#d80027">
<path d="m244.87 256h267.13c0-23.106-3.08-45.49-8.819-66.783h-258.31z"/>
<path d="m244.87 122.44h229.56c-15.671-25.572-35.708-48.175-59.07-66.783h-170.49z"/>
<path d="m256 512c60.249 0 115.63-20.824 159.36-55.652h-318.71c43.73 34.828 99.107 55.652 159.36 55.652z"/>
<path d="m37.574 389.56h436.85c12.581-20.529 22.338-42.969 28.755-66.783h-494.36c6.417 23.814 16.174 46.254 28.755 66.783z"/>
</g>
<path d="m41.368 94.623h1.048l-0.97481 0.7082 0.37236 1.1459-0.97476-0.70819-0.97476 0.70819 0.32164-0.98994c-0.85828 0.71493-1.6105 1.5525-2.2305 2.4858h0.33579l-0.6205 0.45079c-0.0967 0.16127-0.18939 0.3251-0.27825 0.49136l0.29631 0.91195-0.55281-0.40164c-0.13742 0.29113-0.26311 0.58882-0.37609 0.89272l0.32645 1.0048h1.2049l-0.9748 0.70819 0.37236 1.1459-0.97476-0.7082-0.5839 0.42425c-0.0584 0.46979-0.0889 0.9483-0.0889 1.434h11.5v-11.5c-2.2718 0-4.3896 0.659-6.173 1.7959zm0.44554 8.5541-0.97476-0.7082-0.97476 0.7082 0.37236-1.1459-0.97481-0.70819h1.2049l0.37231-1.1459 0.37231 1.1459h1.2049l-0.97481 0.70819zm-0.37236-4.4959 0.37236 1.1459-0.97476-0.70819-0.97476 0.70819 0.37236-1.1459-0.97481-0.70819h1.2049l0.37231-1.1459 0.37231 1.1459h1.2049zm4.4974 4.4959-0.97476-0.7082-0.97476 0.7082 0.37236-1.1459-0.9748-0.70819h1.2049l0.37231-1.1459 0.37232 1.1459h1.2049l-0.9748 0.70819zm-0.37235-4.4959 0.37235 1.1459-0.97476-0.70819-0.97476 0.70819 0.37236-1.1459-0.9748-0.70819h1.2049l0.37231-1.1459 0.37232 1.1459h1.2049zm0-3.35 0.37235 1.1459-0.97476-0.70819-0.97476 0.70819 0.37236-1.1459-0.9748-0.7082h1.2049l0.37231-1.1459 0.37232 1.1459h1.2049z" fill="#0052b4" stroke-width=".044922"/>
<text x="70.921051" y="68.780701" fill="#000000" font-family="sans-serif" font-size="16px" style="line-height:1.25" xml:space="preserve"><tspan x="70.921051" y="68.780701" font-family="'Segoe UI'" font-size="16px"><tspan font-family="'Segoe UI'" font-weight="bold">Spanish:</tspan> Native</tspan></text>
<text x="70.803078" y="110.75391" fill="#000000" font-family="sans-serif" font-size="16px" style="line-height:1.25" xml:space="preserve"><tspan x="70.803078" y="110.75391" font-family="'Segoe UI'" font-size="16px"><tspan font-family="'Segoe UI'" font-weight="bold">English:</tspan> C1</tspan></text>
<text x="70.958923" y="149.64864" fill="#000000" font-family="sans-serif" font-size="16px" style="line-height:1.25" xml:space="preserve"><tspan x="70.958923" y="149.64864" font-family="'Segoe UI'" font-size="16px"><tspan font-family="'Segoe UI'" font-weight="bold">French: </tspan>B2</tspan></text>
</svg>
